<svg width="200" height="80" viewBox="0 0 200 80" fill="none" xmlns="http://www.w3.org/2000/svg">
<g opacity="0.5">
<path fill-rule="evenodd" clip-rule="evenodd" d="M128.114 -159.859C211.349 -147.944 305.859 -165.366 369.424 -111.156C435.783 -54.5613 463.105 38.176 459.667 122.906C456.397 203.524 399.37 267.544 351.417 332.734C305.847 394.683 267.595 479.86 189.337 490.407C110.718 501.003 60.4259 400.864 -17.1873 382.412C-99.1348 362.93 -202.251 440.098 -263.068 382.852C-321.779 327.589 -277.926 229.494 -260.938 152.974C-247.875 94.1371 -206.618 50.1193 -177.455 -2.76123C-144.723 -62.1126 -141.168 -143.915 -79.8053 -175.463C-17.4267 -207.532 57.5333 -169.962 128.114 -159.859Z" stroke="url(#paint0_linear)"/>
<path fill-rule="evenodd" clip-rule="evenodd" d="M126.679 -146.275C206.2 -134.892 296.493 -151.537 357.222 -99.7451C420.621 -45.6759 446.723 42.9236 443.439 123.873C440.315 200.894 385.833 262.058 340.019 324.339C296.482 383.525 259.937 464.901 185.17 474.977C110.059 485.1 62.0109 389.429 -12.1394 371.801C-90.4306 353.188 -188.946 426.913 -247.05 372.221C-303.141 319.424 -261.245 225.705 -245.014 152.6C-232.534 96.388 -193.118 54.3342 -165.256 3.81302C-133.984 -52.8903 -130.588 -131.043 -71.9635 -161.183C-12.368 -191.822 59.2474 -155.928 126.679 -146.275Z" stroke="url(#paint1_linear)"/>
<path fill-rule="evenodd" clip-rule="evenodd" d="M115.859 -111.073C186.83 -100.914 267.414 -115.77 321.612 -69.5468C378.193 -21.2916 401.489 57.7808 398.558 130.026C395.77 198.765 347.146 253.351 306.259 308.935C267.404 361.757 234.788 434.382 168.061 443.376C101.027 452.41 58.1452 367.027 -8.03165 351.294C-77.9041 334.682 -165.826 400.48 -217.682 351.669C-267.741 304.549 -230.351 220.908 -215.865 155.664C-204.727 105.496 -169.55 67.9643 -144.684 22.8757C-116.775 -27.7302 -113.744 -97.4791 -61.4228 -124.378C-8.23571 -151.722 55.6789 -119.688 115.859 -111.073Z" stroke="url(#paint2_linear)"/>
<path fill-rule="evenodd" clip-rule="evenodd" d="M102.29 -90.9209C167.098 -81.6437 240.684 -95.2094 290.176 -53.0003C341.844 -8.93543 363.117 63.2706 360.441 129.242C357.894 192.012 313.493 241.858 276.156 292.616C240.675 340.851 210.891 407.17 149.959 415.382C88.7452 423.632 49.5875 345.663 -10.8428 331.296C-74.6479 316.127 -154.935 376.211 -202.288 331.639C-248 288.611 -213.857 212.232 -200.629 152.654C-190.458 106.843 -158.336 72.5699 -135.629 31.3966C-110.143 -14.8149 -107.375 -78.5071 -59.5978 -103.07C-11.0292 -128.04 47.3354 -98.7876 102.29 -90.9209Z" stroke="url(#paint3_linear)"/>
<path fill-rule="evenodd" clip-rule="evenodd" d="M94.7127 -62.5667C150.755 -54.5443 214.389 -66.2752 257.187 -29.775C301.867 8.32995 320.262 70.7699 317.948 127.819C315.746 182.099 277.35 225.203 245.063 269.096C214.381 310.807 188.625 368.156 135.934 375.257C83.0001 382.391 49.1385 314.968 -3.11844 302.544C-58.2937 289.427 -127.722 341.384 -168.67 302.841C-208.2 265.632 -178.674 199.584 -167.236 148.064C-158.44 108.449 -130.662 78.8114 -111.027 43.207C-88.9879 3.24565 -86.5945 -51.832 -45.2791 -73.0728C-3.27959 -94.6655 47.191 -69.3695 94.7127 -62.5667Z" stroke="url(#paint4_linear)"/>
<path fill-rule="evenodd" clip-rule="evenodd" d="M97.7366 -48.6145C146.994 -41.5633 202.924 -51.874 240.541 -19.7927C279.812 13.6992 295.98 68.58 293.946 118.722C292.011 166.431 258.263 204.317 229.885 242.896C202.917 279.557 180.28 329.963 133.968 336.205C87.4419 342.475 57.6798 283.214 11.7492 272.295C-36.7463 260.765 -97.7693 306.433 -133.76 272.555C-168.504 239.851 -142.553 181.8 -132.499 136.516C-124.769 101.697 -100.354 75.6479 -83.0951 44.3539C-63.7246 9.23043 -61.6209 -39.1793 -25.3073 -57.8487C11.6076 -76.8272 55.968 -54.5936 97.7366 -48.6145Z" stroke="url(#paint5_linear)"/>
<path fill-rule="evenodd" clip-rule="evenodd" d="M98.8087 -42.5538C142.77 -36.2608 192.685 -45.4628 226.257 -16.8312C261.305 13.0593 275.735 62.0387 273.92 106.789C272.193 149.368 242.074 183.18 216.747 217.61C192.679 250.329 172.476 295.315 131.144 300.886C89.621 306.482 63.0592 253.593 22.0676 243.848C-21.2132 233.558 -75.6743 274.315 -107.795 244.08C-138.803 214.893 -115.642 163.084 -106.67 122.67C-99.7706 91.5948 -77.9809 68.3467 -62.5781 40.4176C-45.2905 9.07104 -43.413 -34.1332 -11.0042 -50.795C21.9412 -67.7328 61.5315 -47.89 98.8087 -42.5538Z" stroke="url(#paint6_linear)"/>
<path fill-rule="evenodd" clip-rule="evenodd" d="M106.067 -34.111C146.211 -28.3644 191.792 -36.7674 222.449 -10.622C254.453 16.6729 267.63 61.3991 265.972 102.264C264.395 141.145 236.892 172.021 213.764 203.461C191.786 233.339 173.338 274.419 135.594 279.506C97.6772 284.616 73.422 236.32 35.9899 227.421C-3.53255 218.025 -53.2645 255.242 -82.5961 227.633C-110.911 200.98 -89.762 153.67 -81.5685 116.765C-75.2684 88.3887 -55.3708 67.1593 -41.3055 41.6555C-25.5191 13.031 -23.8047 -26.4216 5.78986 -41.6366C35.8745 -57.1035 72.0269 -38.9838 106.067 -34.111Z" stroke="url(#paint7_linear)"/>
<path fill-rule="evenodd" clip-rule="evenodd" d="M101.038 -10.5809C134.895 -5.47108 173.135 -11.5291 199.286 9.65875C226.586 31.7781 238.28 67.4912 237.44 99.9349C236.64 130.804 213.915 154.962 194.881 179.627C176.793 203.067 161.826 235.454 130.136 238.984C98.2994 242.529 77.2348 203.83 45.6167 196.252C12.2329 188.251 -29.1097 217.146 -54.1653 194.813C-78.3529 173.254 -61.198 135.953 -54.8039 106.744C-49.8874 84.2846 -33.4323 67.688 -21.9428 47.6163C-9.04735 25.0885 -8.13968 -6.23274 16.5565 -17.9196C41.6617 -29.7999 72.3281 -14.9139 101.038 -10.5809Z" stroke="url(#paint8_linear)"/>
<path fill-rule="evenodd" clip-rule="evenodd" d="M102.619 6.8767C128.643 10.8044 158.037 6.14792 178.138 22.4341C199.122 39.4362 208.111 66.8873 207.465 91.8254C206.85 115.553 189.383 134.122 174.752 153.081C160.848 171.098 149.344 195.993 124.985 198.706C100.514 201.432 84.3226 171.685 60.0191 165.86C34.3584 159.71 2.58016 181.92 -16.6789 164.754C-35.2709 148.182 -22.0847 119.511 -17.1698 97.0592C-13.3907 79.7956 -0.742424 67.0386 8.08907 51.6103C18.0012 34.2942 18.6989 10.219 37.6818 1.2358C56.979 -7.89611 80.551 3.54615 102.619 6.8767Z" stroke="url(#paint9_linear)"/>
<path fill-rule="evenodd" clip-rule="evenodd" d="M112.197 15.267C133.99 18.7465 158.458 15.591 175.504 28.6052C193.3 42.1916 201.247 63.7271 201.109 83.1493C200.977 101.629 186.691 115.817 174.78 130.356C163.461 144.171 154.255 163.385 133.96 165.107C113.57 166.837 99.5721 143.397 79.1853 138.467C57.6601 133.262 31.4832 150.057 15.1259 136.37C-0.664792 123.158 9.88404 101.028 13.6265 83.6125C16.5042 70.2209 26.86 60.4837 33.9859 48.6037C41.9837 35.2699 42.1788 16.5208 57.8846 9.82636C73.8506 3.02103 93.7169 12.3166 112.197 15.267Z" stroke="url(#paint10_linear)"/>
</g>
<defs>
<linearGradient id="paint0_linear" x1="421.631" y1="15.4714" x2="-306.231" y2="240.376" gradientUnits="userSpaceOnUse">
<stop stop-color="#221EEA"/>
<stop offset="0.471875" stop-color="#3E97FF"/>
<stop offset="1" stop-color="#F1F1FA" stop-opacity="0"/>
</linearGradient>
<linearGradient id="paint1_linear" x1="407.1" y1="21.2321" x2="-288.287" y2="236.102" gradientUnits="userSpaceOnUse">
<stop stop-color="#221EEA"/>
<stop offset="0.471875" stop-color="#3E97FF"/>
<stop offset="1" stop-color="#F1F1FA" stop-opacity="0"/>
</linearGradient>
<linearGradient id="paint2_linear" x1="366.127" y1="38.4217" x2="-254.485" y2="230.186" gradientUnits="userSpaceOnUse">
<stop stop-color="#221EEA"/>
<stop offset="0.471875" stop-color="#3E97FF"/>
<stop offset="1" stop-color="#F1F1FA" stop-opacity="0"/>
</linearGradient>
<linearGradient id="paint3_linear" x1="330.825" y1="45.5927" x2="-235.895" y2="220.705" gradientUnits="userSpaceOnUse">
<stop stop-color="#221EEA"/>
<stop offset="0.471875" stop-color="#3E97FF"/>
<stop offset="1" stop-color="#F1F1FA" stop-opacity="0"/>
</linearGradient>
<linearGradient id="paint4_linear" x1="292.338" y1="55.483" x2="-197.732" y2="206.911" gradientUnits="userSpaceOnUse">
<stop stop-color="#221EEA"/>
<stop offset="0.471875" stop-color="#3E97FF"/>
<stop offset="1" stop-color="#F1F1FA" stop-opacity="0"/>
</linearGradient>
<linearGradient id="paint5_linear" x1="271.437" y1="55.1437" x2="-159.303" y2="188.239" gradientUnits="userSpaceOnUse">
<stop stop-color="#221EEA"/>
<stop offset="0.471875" stop-color="#3E97FF"/>
<stop offset="1" stop-color="#F1F1FA" stop-opacity="0"/>
</linearGradient>
<linearGradient id="paint6_linear" x1="253.831" y1="50.0473" x2="-130.592" y2="168.831" gradientUnits="userSpaceOnUse">
<stop stop-color="#221EEA"/>
<stop offset="0.471875" stop-color="#3E97FF"/>
<stop offset="1" stop-color="#F1F1FA" stop-opacity="0"/>
</linearGradient>
<linearGradient id="paint7_linear" x1="247.628" y1="50.4489" x2="-103.413" y2="158.918" gradientUnits="userSpaceOnUse">
<stop stop-color="#221EEA"/>
<stop offset="0.471875" stop-color="#3E97FF"/>
<stop offset="1" stop-color="#F1F1FA" stop-opacity="0"/>
</linearGradient>
<linearGradient id="paint8_linear" x1="221.301" y1="58.5202" x2="-66.711" y2="157.17" gradientUnits="userSpaceOnUse">
<stop stop-color="#221EEA"/>
<stop offset="0.471875" stop-color="#3E97FF"/>
<stop offset="1" stop-color="#F1F1FA" stop-opacity="0"/>
</linearGradient>
<linearGradient id="paint9_linear" x1="195.06" y1="59.9917" x2="-26.3223" y2="135.82" gradientUnits="userSpaceOnUse">
<stop stop-color="#221EEA"/>
<stop offset="0.471875" stop-color="#3E97FF"/>
<stop offset="1" stop-color="#F1F1FA" stop-opacity="0"/>
</linearGradient>
<linearGradient id="paint10_linear" x1="190.238" y1="58.1437" x2="11.6925" y2="126.876" gradientUnits="userSpaceOnUse">
<stop stop-color="#221EEA"/>
<stop offset="0.471875" stop-color="#3E97FF"/>
<stop offset="1" stop-color="#F1F1FA" stop-opacity="0"/>
</linearGradient>
</defs>
</svg>
